# xmcd
#
# Track frame offsets:
#	150
#	14031
#	34022
#	44927
#	63145
#	74129
#	85030
#	95058
#	110587
#	123156
#	135639
#	149521
#
# Disc length: 2147 seconds
#
# Revision: 1
# Processed by: cddbd v1.5.2PL0 Copyright (c) Steve Scherf et al.
# Submitted via: audiograbber 1.83.01
#
DISCID=b708610c
DTITLE=Longview - Deep In The Mountains
DYEAR=2008
DGENRE=Bluegrass
TTITLE0=Eating Out Of Your Hand
TTITLE1=Weathered Grey Stone
TTITLE2=Room At the Top of the Stairs
TTITLE3=Don't Leave Me Alone
TTITLE4=Old Log Cabin
TTITLE5=Cotton Eye Joe
TTITLE6=I'll Love Nobody But You
TTITLE7=Baptism of Jesse Taylor
TTITLE8=I'm Gonna Love You One More Time
TTITLE9=At the First Fall of Snow
TTITLE10=I Love You Yet
TTITLE11=Georgia Bound
EXTD=
EXTT0=
EXTT1=
EXTT2=
EXTT3=
EXTT4=
EXTT5=
EXTT6=
EXTT7=
EXTT8=
EXTT9=
EXTT10=
EXTT11=
PLAYORDER=
